<svg width="32" height="32" viewBox="0 0 32 32" fill="none" xmlns="http://www.w3.org/2000/svg">
<g clip-path="url(#clip0)">
<path d="M31.3809 0H0V31.3809H31.3809V0Z" fill="#ADC9EF"/>
</g>
<g clip-path="url(#clip1)">
<path d="M31.3809 0H0V31.3809H31.3809V0Z" fill="#ADC9EF"/>
<g clip-path="url(#clip2)">
<path d="M19.2564 0H12.1244V12.1244H19.2564V0Z" fill="#2F80ED"/>
<path d="M19.2564 19.2564H12.1244V31.3809H19.2564V19.2564Z" fill="#2F80ED"/>
<path d="M12.1244 12.1244H0V19.2564H12.1244V12.1244Z" fill="#2F80ED"/>
<path d="M31.3809 12.1244H19.2564V19.2564H31.3809V12.1244Z" fill="#2F80ED"/>
</g>
<g clip-path="url(#clip3)">
<path d="M21.3247 9.91351H9.91351V21.3247H21.3247V9.91351Z" fill="#054499"/>
<path d="M31.2382 15.6191C31.2382 11.3399 28.2428 7.84522 24.1775 7.0607C23.393 2.99545 19.8983 0 15.6191 0C11.3399 0 7.84522 2.99545 7.0607 7.0607C2.99545 7.84522 0 11.4112 0 15.6191C0 19.827 2.99545 23.393 7.0607 24.1775C7.84522 28.1715 11.4112 31.2382 15.6191 31.2382C19.827 31.2382 23.393 28.2428 24.1775 24.1775C28.2428 23.393 31.2382 19.8983 31.2382 15.6191ZM23.4643 21.3247H21.3247V23.4643C21.3247 26.6024 18.7572 29.17 15.6191 29.17C12.481 29.17 9.9135 26.6024 9.9135 23.4643V21.3247H7.7739C4.63581 21.3247 2.06829 18.7572 2.06829 15.6191C2.06829 12.481 4.63581 9.9135 7.7739 9.9135H9.9135V7.7739C9.9135 4.63581 12.481 2.06829 15.6191 2.06829C18.7572 2.06829 21.3247 4.63581 21.3247 7.7739V9.9135H23.4643C26.6024 9.9135 29.17 12.481 29.17 15.6191C29.17 18.7572 26.6024 21.3247 23.4643 21.3247Z" fill="#054499"/>
</g>
<g clip-path="url(#clip4)">
<path d="M10.698 15.6904C10.698 15.6904 12.695 14.6206 13.9788 13.9074C14.6206 12.6237 15.6904 10.698 15.6904 10.698C15.6904 10.698 16.8316 12.6237 17.5448 13.9074C18.8285 14.6206 20.8255 15.6904 20.8255 15.6904C20.8255 15.6904 18.8285 16.7602 17.5448 17.4734C16.8316 18.7572 15.6904 20.6829 15.6904 20.6829C15.6904 20.6829 14.6206 18.7572 13.9788 17.4734C12.695 16.7602 10.698 15.6904 10.698 15.6904Z" fill="#F4F9FF"/>
</g>
</g>
<defs>
<clipPath id="clip0">
<rect width="31.3809" height="31.3809" fill="white"/>
</clipPath>
<clipPath id="clip1">
<rect width="31.3809" height="31.3809" fill="white"/>
</clipPath>
<clipPath id="clip2">
<rect width="31.3809" height="31.3809" fill="white"/>
</clipPath>
<clipPath id="clip3">
<rect width="31.2382" height="31.2382" fill="white"/>
</clipPath>
<clipPath id="clip4">
<rect width="10.0561" height="9.98482" fill="white" transform="translate(10.698 10.698)"/>
</clipPath>
</defs>
</svg>
