<svg width="32" height="32" viewBox="0 0 32 32" fill="none" xmlns="http://www.w3.org/2000/svg">
<path d="M21.3247 9.91351H9.91351V21.3247H21.3247V9.91351Z" fill="#054499"/>
<path d="M31.2382 15.6191C31.2382 11.3399 28.2428 7.84522 24.1775 7.0607C23.393 2.99545 19.8983 0 15.6191 0C11.3399 0 7.84522 2.99545 7.0607 7.0607C2.99545 7.84522 0 11.4112 0 15.6191C0 19.827 2.99545 23.393 7.0607 24.1775C7.84522 28.1715 11.4112 31.2382 15.6191 31.2382C19.827 31.2382 23.393 28.2428 24.1775 24.1775C28.2428 23.393 31.2382 19.8983 31.2382 15.6191ZM23.4643 21.3247H21.3247V23.4643C21.3247 26.6024 18.7572 29.17 15.6191 29.17C12.481 29.17 9.9135 26.6024 9.9135 23.4643V21.3247H7.7739C4.63581 21.3247 2.06829 18.7572 2.06829 15.6191C2.06829 12.481 4.63581 9.9135 7.7739 9.9135H9.9135V7.7739C9.9135 4.63581 12.481 2.06829 15.6191 2.06829C18.7572 2.06829 21.3247 4.63581 21.3247 7.7739V9.9135H23.4643C26.6024 9.9135 29.17 12.481 29.17 15.6191C29.17 18.7572 26.6024 21.3247 23.4643 21.3247Z" fill="#054499"/>
</svg>
