<svg width="31" height="31" viewBox="0 0 31 31" fill="none" xmlns="http://www.w3.org/2000/svg">
<path d="M31 0H0V31H31V0Z" fill="#A8CED4"/>
<path d="M23.4614 12.1886V7.53864H18.8114L15.5 4.22728L12.1886 7.53864H7.53864V12.1886L4.22727 15.5L7.53864 18.8114V23.4614H12.1886L15.5 26.7727L18.8114 23.4614H23.4614V18.8114L26.7727 15.5L23.4614 12.1886Z" fill="#F4F9FF"/>
<path d="M21.1364 9.86363H9.86364V21.1364H21.1364V9.86363Z" fill="#054499"/>
<path d="M30.9296 15.5C30.9296 11.2727 27.9705 7.82045 23.9546 7.04545C23.1795 3.02954 19.7273 0.0704498 15.5 0.0704498C11.2727 0.0704498 7.82046 3.02954 7.04546 7.04545C3.02955 7.82045 0.0704546 11.2727 0.0704546 15.5C0.0704546 19.7273 3.02955 23.1795 7.04546 23.9545C7.82046 27.9 11.3432 30.9295 15.5 30.9295C19.6568 30.9295 23.1795 27.9704 23.9546 23.9545C27.9705 23.1795 30.9296 19.7273 30.9296 15.5ZM23.25 21.1364H21.1364V23.25C21.1364 26.35 18.6 28.8864 15.5 28.8864C12.4 28.8864 9.86364 26.35 9.86364 23.25V21.1364H7.75C4.65 21.1364 2.11364 18.6 2.11364 15.5C2.11364 12.4 4.65 9.86363 7.75 9.86363H9.86364V7.74999C9.86364 4.64999 12.4 2.11363 15.5 2.11363C18.6 2.11363 21.1364 4.64999 21.1364 7.74999V9.86363H23.25C26.35 9.86363 28.8864 12.4 28.8864 15.5C28.8864 18.6 26.35 21.1364 23.25 21.1364Z" fill="#054499"/>
<path d="M10.5682 15.5C10.5682 15.5 12.5409 14.4432 13.8091 13.7386C14.5136 12.4705 15.5 10.5682 15.5 10.5682C15.5 10.5682 16.6273 12.4705 17.3318 13.7386C18.6 14.4432 20.5727 15.5 20.5727 15.5C20.5727 15.5 18.6 16.5568 17.3318 17.2614C16.6273 18.5295 15.5 20.4318 15.5 20.4318C15.5 20.4318 14.4432 18.5295 13.8091 17.2614C12.5409 16.5568 10.5682 15.5 10.5682 15.5Z" fill="#FBC63F"/>
</svg>
